# xmcd CD database file
#
# Track frame offsets:
#	150
#	19677
#	45250
#
# Disc length: 860 seconds
#
# Revision: 0
# Processed by: cddbd v1.5.1PL0 Copyright (c) Steve Scherf et al.
# Submitted via: CDex 1.40Beta9
#
DISCID=15035a03
DTITLE=Cry and Feel it - Liberty
DYEAR=2005
DGENRE=J-Pop
TTITLE0=Liberty
TTITLE1=I pray
TTITLE2=Liberty -Backing Track-
EXTD=YEAR: 2005/06/22
EXTT0=
EXTT1=
EXTT2=
PLAYORDER=
